<mxfile host="app.diagrams.net" agent="Mozilla/5.0 (Windows NT 10.0; Win64; x64) AppleWebKit/537.36 (KHTML, like Gecko) Chrome/132.0.0.0 YaBrowser/25.2.0.0 Safari/537.36" version="26.0.14">
  <diagram name="Страница — 1" id="alg1FltjNgYqF64cATI-">
    <mxGraphModel dx="1391" dy="897" grid="0" gridSize="10" guides="1" tooltips="1" connect="1" arrows="1" fold="1" page="0" pageScale="1" pageWidth="827" pageHeight="1169" math="0" shadow="0">
      <root>
        <mxCell id="0" />
        <mxCell id="1" parent="0" />
        <mxCell id="CgsKlKYqrs1iZS2f-93M-1" value="&lt;b&gt;&lt;font style=&quot;font-size: 16px;&quot;&gt;Планирование&lt;/font&gt;&lt;/b&gt;" style="ellipse;whiteSpace=wrap;html=1;" vertex="1" parent="1">
          <mxGeometry x="-384" y="50" width="129" height="80" as="geometry" />
        </mxCell>
        <mxCell id="CgsKlKYqrs1iZS2f-93M-3" value="&lt;b&gt;&lt;span style=&quot;font-size: 12pt; line-height: 115%;&quot;&gt;&lt;font face=&quot;Helvetica&quot;&gt;Поиск спикеров&lt;/font&gt;&lt;/span&gt;&lt;/b&gt;" style="ellipse;whiteSpace=wrap;html=1;" vertex="1" parent="1">
          <mxGeometry x="-122" y="122" width="143" height="80" as="geometry" />
        </mxCell>
        <mxCell id="CgsKlKYqrs1iZS2f-93M-4" value="&lt;font style=&quot;font-size: 16px;&quot;&gt;&lt;b&gt;Привлечение участников&lt;/b&gt;&lt;/font&gt;" style="ellipse;whiteSpace=wrap;html=1;" vertex="1" parent="1">
          <mxGeometry x="-136" y="21" width="127" height="80" as="geometry" />
        </mxCell>
        <mxCell id="CgsKlKYqrs1iZS2f-93M-5" value="&lt;font style=&quot;font-size: 16px;&quot;&gt;&lt;b&gt;Реклама&lt;/b&gt;&lt;/font&gt;" style="ellipse;whiteSpace=wrap;html=1;" vertex="1" parent="1">
          <mxGeometry x="-9" y="36" width="112" height="80" as="geometry" />
        </mxCell>
        <mxCell id="CgsKlKYqrs1iZS2f-93M-6" value="&lt;font style=&quot;font-size: 16px;&quot;&gt;&lt;b&gt;Проведение мероприятия&lt;/b&gt;&lt;/font&gt;" style="ellipse;whiteSpace=wrap;html=1;" vertex="1" parent="1">
          <mxGeometry x="-93" y="269" width="151" height="80" as="geometry" />
        </mxCell>
        <mxCell id="CgsKlKYqrs1iZS2f-93M-7" value="&lt;i&gt;Создание программы мероприятия&lt;/i&gt;" style="ellipse;whiteSpace=wrap;html=1;" vertex="1" parent="1">
          <mxGeometry x="-281" y="166" width="118" height="80" as="geometry" />
        </mxCell>
        <mxCell id="CgsKlKYqrs1iZS2f-93M-8" value="&lt;i&gt;Выбор даты и места&lt;/i&gt;" style="ellipse;whiteSpace=wrap;html=1;" vertex="1" parent="1">
          <mxGeometry x="-275" y="254" width="134" height="80" as="geometry" />
        </mxCell>
        <mxCell id="CgsKlKYqrs1iZS2f-93M-10" value="&lt;i&gt;Регистрация участников&lt;/i&gt;" style="ellipse;whiteSpace=wrap;html=1;" vertex="1" parent="1">
          <mxGeometry x="-184" y="-64" width="117" height="80" as="geometry" />
        </mxCell>
        <mxCell id="CgsKlKYqrs1iZS2f-93M-11" value="&lt;i&gt;Использование соцсетей&lt;/i&gt;" style="ellipse;whiteSpace=wrap;html=1;" vertex="1" parent="1">
          <mxGeometry x="2" y="-70" width="111" height="80" as="geometry" />
        </mxCell>
        <mxCell id="CgsKlKYqrs1iZS2f-93M-13" value="&lt;i&gt;Координация работы команды волонтеров&lt;/i&gt;" style="ellipse;whiteSpace=wrap;html=1;" vertex="1" parent="1">
          <mxGeometry x="12" y="202" width="141" height="80" as="geometry" />
        </mxCell>
      </root>
    </mxGraphModel>
  </diagram>
</mxfile>
